<svg width="14" height="18" xmlns="http://www.w3.org/2000/svg"><path d="M10.148 16.665H4.594c-.328 0-.594.298-.594.667 0 .37.266.668.594.668h5.554c.328 0 .594-.299.594-.668 0-.369-.266-.667-.594-.667zm3.587-2.571l-1.091-2.157c-.314-.852-1.346-.706-1.224.109.01.028.017.058.031.085l1.34 2.652a.579.579 0 0 0 .043.07H1.15l1.375-2.721a.69.69 0 0 0 .073-.313V7.957c0-1.857 1.284-3.783 2.996-4.483a5.07 5.07 0 0 1 .93-.252 3.65 3.65 0 0 1 .918 0c.28.044.611.134 1.002.278 1.672.713 2.933 2.629 2.933 4.457v2.08c.03.591 1.039.653 1.124 0v-2.08c0-1.128-.363-2.317-1.022-3.344A6.133 6.133 0 0 0 9.337 2.58C9.312 1.154 8.275 0 7 0 5.73 0 4.698 1.145 4.664 2.564a6.106 6.106 0 0 0-2.148 2.019c-.672 1.035-1.042 2.234-1.042 3.374v3.695l-1.33 2.634c-.193.377-.192.845.002 1.222.194.376.555.61.942.61H12.91c.601 0 1.09-.55 1.09-1.224 0-.296-.094-.58-.265-.8zM7.203 1.042c.556 0 1.027.401 1.206.958A5.877 5.877 0 0 0 6 1.99c.182-.552.65-.948 1.203-.948z" opacity=".7"/></svg>