<svg width="14" height="14" xmlns="http://www.w3.org/2000/svg"><path d="M1.652 6.282h4.696V1.705C6.348.808 5.652 0 4.696 0H1.652C.696 0 0 .808 0 1.705v2.962c0 .897.696 1.615 1.652 1.615zm12.261-1.615V1.705C13.913.808 13.217 0 12.261 0H9.217c-.87 0-1.652.718-1.652 1.705v4.667h4.696c.956-.09 1.652-.808 1.652-1.705zM9.304 14h3.13c.87 0 1.566-.718 1.566-1.705V9.333c0-.897-.696-1.705-1.652-1.705H7.652v4.667c0 .897.696 1.705 1.652 1.705zm-7.652 0h3.044c.87 0 1.652-.718 1.652-1.705V7.718H1.652C.782 7.718 0 8.436 0 9.423v2.962C0 13.192.696 14 1.652 14z"/></svg>