<svg width="14" height="14" xmlns="http://www.w3.org/2000/svg"><path d="M13.132 5.674l-1.123-.249a5.136 5.136 0 0 0-.334-.805l.608-1.012c.227-.363.34-.896 0-1.238l-.62-.619a.854.854 0 0 0-.617-.238 1.17 1.17 0 0 0-.649.2l-.985.628a5.278 5.278 0 0 0-.8-.337L8.36.868C8.285.451 7.92 0 7.437 0h-.875c-.483 0-.779.458-.875.875l-.28 1.122a5.223 5.223 0 0 0-.852.359l-1.01-.643a1.169 1.169 0 0 0-.65-.2c-.225 0-.45.07-.617.238l-.618.62c-.342.34-.227.874 0 1.237l.639 1.065c-.12.242-.226.49-.308.752l-1.123.25C.451 5.75 0 6.113 0 6.596v.875c0 .484.458.78.875.875l1.137.284c.078.241.176.473.288.697l-.64 1.067c-.227.362-.341.895 0 1.237l.62.619a.855.855 0 0 0 .616.238c.235 0 .472-.076.65-.2l1.01-.645c.274.145.56.267.858.361l.28 1.12c.096.417.392.875.875.875h.875c.484 0 .848-.451.923-.868l.252-1.14c.275-.089.54-.2.791-.331l.987.629c.177.123.415.2.65.2.225 0 .45-.072.616-.24l.62-.618c.34-.342.227-.875 0-1.237l-.609-1.013c.123-.241.229-.491.314-.751l1.137-.284c.417-.095.875-.391.875-.875v-.875c0-.483-.451-.847-.868-.923zM7 9c-1.102 0-2-.898-2-2 0-1.103.898-2 2-2 1.103 0 2 .897 2 2 0 1.102-.897 2-2 2z"/></svg>