<svg width="16" height="14" xmlns="http://www.w3.org/2000/svg"><path d="M15.962 11.693c-.265-.727-1.144-.831-1.879-1.123-.807-.321-1.7-.694-2.505-1.006l-.689-.178c-.274-.178-.543-.77-.69-1.064l-.438-.059c.023-.456.322-.48.439-.828.104-.307.01-.706.174-.99.114-.198.372-.199.5-.368.116-.154.193-.421.23-.61.066-.343.124-.813-.05-1.154-.099-.196-.161-.214-.189-.452-.034-.289.09-1.228.095-1.431.012-.527 0-.57-.136-1.083 0 0-.164-.465-.421-.605L9.89.658 9.574.381C8.297-.36 6.93.16 6.196.441 5.141.763 4.473 1.74 4.94 3.825c.08.357-.207.516-.188.71.04.426.05 1.448.475 1.7.04.023.342.094.34.075l.125 1.242c.106.275.361.306.435.694l-.327.075c-.146.295-.414.886-.688 1.064l-.689.178c-.804.312-1.7.685-2.505 1.006-.735.292-1.613.396-1.88 1.124 0 .493-.048 1.659-.035 2.306h15.996c.013-.647-.036-1.813-.036-2.307z"/></svg>