<svg version="1.1" id="图层_1" xmlns="http://www.w3.org/2000/svg" x="0" y="0" viewBox="0 0 16 16" xml:space="preserve"><g id="Page-1"><g id="车辆管理icon" transform="translate(71 98)"><path class="st0" d="M-56.7-98h-12.5c-.4 0-.8.4-.8.8v12.6c0 .5.4.8.8.8h12.5c.4 0 .8-.4.8-.8v-12.6c-.1-.4-.4-.8-.8-.8zm-10.1 11.3c-.6 0-1-.4-1-1s.4-1 1-1 1 .4 1 1-.5 1-1 1zm8 0c-.6 0-1-.4-1-1s.4-1 1-1 1 .4 1 1-.5 1-1 1zm1.5-4.8c0 .4-.3.8-.7.8h-10c-.4 0-.7-.3-.7-.8v-4.6c0-.4.3-.8.7-.8h10c.4 0 .7.3.7.8v4.6z"/><path id="Fill-3" class="st0" d="M-66.9-82h-.8c-.4 0-.8-.4-.8-.8v-1.7c0-.5.4-.8.8-.8h.8c.4 0 .8.4.8.8v1.7c0 .4-.4.8-.8.8"/><path id="Fill-5" class="st0" d="M-70-90.4h-.8v-.8c0-.5.4-.8.8-.8v1.6z"/><path id="Fill-7" class="st0" d="M-56-90.4h.8v-.8c0-.5-.4-.8-.8-.8v1.6z"/><path id="Fill-9" class="st0" d="M-58.3-82h-.8c-.4 0-.8-.4-.8-.8v-1.7c0-.5.4-.8.8-.8h.8c.4 0 .8.4.8.8v1.7c0 .4-.4.8-.8.8"/><path id="Fill-11" class="st0" d="M-63.8-93.9c-.2-.2-.5-.2-.6 0l-3.4 3.7h1.3l2.8-3c0-.2 0-.5-.1-.7"/><path id="Fill-13" class="st0" d="M-58.9-93.9c-.2-.2-.5-.2-.6 0l-3.4 3.7h1.3l2.8-3c.1-.2.1-.5-.1-.7"/></g></g></svg>