<svg width="12" height="16" xmlns="http://www.w3.org/2000/svg"><path d="M7.84 5.737c-.26 0-.389-.151-.519-.302-.13-.15-.26-.301-.26-.603V.01L1.409.014c-.773 0-1.4.729-1.4 1.626v12.802c0 .853.596 1.545 1.33 1.545h9.326c.735 0 1.331-.692 1.331-1.546V5.737H7.841zm1.17 6.227c0 .312-.219.566-.487.566H3.655c-.269 0-.488-.254-.488-.566v-.073c0-.312.22-.567.488-.567h4.868c.268 0 .488.255.488.567v.073zm0-2.28c0 .312-.219.566-.487.566H3.655c-.269 0-.488-.254-.488-.566v-.073c0-.312.22-.566.488-.566h4.868c.268 0 .488.254.488.566v.073zm0-2.253c0 .312-.219.567-.487.567H3.655c-.269 0-.488-.255-.488-.567v-.073c0-.311.22-.566.488-.566h4.868c.268 0 .488.255.488.566v.073z"/><path d="M8.1.31v4.22h3.635L8.1.31"/></svg>