<svg width="14" height="14" xmlns="http://www.w3.org/2000/svg"><path d="M13.754 8.64c-.526-1.889-1.654-3.347-3.418-4.34-.203-.113-.417-.208-.626-.312.001-.003.002-.01.006-.013l.106-.097c.363-.333.69-.719.86-1.174.082-.22.102-.316.16-.52.107-.647-.016-1.04-.416-1.367-.54-.441-1.153-.494-1.8-.234-.046.018-.075.03-.12-.01-.834-.758-2.172-.765-3.01-.017-.04.035-.068.044-.12.022a1.733 1.733 0 0 0-1.061-.11c-.692.137-1.265.703-1.164 1.476a3.09 3.09 0 0 0 .825 1.751c.096.103.198.2.301.304-.026.012-.051.025-.077.036a7.017 7.017 0 0 0-4.18 5.91A6.38 6.38 0 0 0 .2 12.07 2.604 2.604 0 0 0 2.719 14c2.862-.006 5.724 0 8.586-.004.92 0 1.627-.397 2.141-1.12.261-.367.383-.784.454-1.22a6.943 6.943 0 0 0-.146-3.016zm-4.037 2.347c-.056.432-.546.457-.546.457H7.649l-.001.364a.48.48 0 0 1-.2.357c-.22.17-.501.11-.501.11-.446-.095-.458-.457-.458-.457v-.373l-1.529-.001a.584.584 0 0 1-.458-.24c-.116-.17-.076-.34-.076-.34.095-.415.545-.419.545-.419h1.518v-.54l-1.53-.002a.607.607 0 0 1-.42-.193l-.025-.03c-.14-.171-.086-.37-.086-.37.117-.411.55-.405.55-.405h1.508v-.39L4.69 6.98c-.151-.15-.151-.314-.151-.314-.015-.35.34-.479.34-.479a.647.647 0 0 1 .615.075l1.656 1.41 1.588-1.35c.196-.138.42-.105.42-.105.455.05.512.415.512.415.052.24-.135.411-.135.411l-1.887 1.61v.251l1.508.001a.575.575 0 0 1 .505.281.45.45 0 0 1-.015.461c-.182.271-.492.257-.492.257H7.648v.54l1.529.003c.118 0 .24.059.24.059.353.176.3.481.3.481z"/></svg>