<svg width="14" height="14" xmlns="http://www.w3.org/2000/svg"><path d="M2.277 10.654l1.058 1.061 2.549-.93-2.68-2.676-.927 2.545"/><path d="M6.445 11.346l-.006-.007a.34.34 0 0 1-.105.064l-5.155 1.881a.365.365 0 0 1-.386-.087.362.362 0 0 1-.085-.385l1.88-5.153a.337.337 0 0 1 .062-.104l-.004-.005 4.63-4.628.915.913-3.627 3.621a.283.283 0 0 0-.084.208c0 .074.026.15.084.207a.296.296 0 0 0 .417 0l3.626-3.62L9.746 5.39l-3.61 3.605a.296.296 0 0 0 0 .415.3.3 0 0 0 .418.001l3.608-3.605.911.913-4.628 4.628zm6.49-6.487L11.49 6.302c-.742-.74-2.467-2.467-3.797-3.794L9.14 1.062a1.334 1.334 0 0 1 1.882 0l1.913 1.914a1.335 1.335 0 0 1 0 1.883z"/></svg>