<svg width="16" height="12" xmlns="http://www.w3.org/2000/svg"><path d="M.422 2a.39.39 0 0 1-.298-.148A.558.558 0 0 1 0 1.496V.504C0 .371.044.242.124.148A.39.39 0 0 1 .422 0h1.156a.39.39 0 0 1 .298.148A.55.55 0 0 1 2 .504v.992a.558.558 0 0 1-.124.356.39.39 0 0 1-.298.148H.422zm4.184 0a.672.672 0 0 1-.429-.148A.464.464 0 0 1 4 1.496V.504c0-.133.063-.262.177-.356A.672.672 0 0 1 4.606 0h10.787c.334 0 .607.226.607.504v.992c0 .279-.273.504-.607.504H4.606zM.422 7a.39.39 0 0 1-.298-.148A.558.558 0 0 1 0 6.496v-.992c0-.133.044-.262.124-.356A.39.39 0 0 1 .422 5h1.156a.39.39 0 0 1 .298.148c.08.094.124.223.124.356v.992a.558.558 0 0 1-.124.356.39.39 0 0 1-.298.148H.422zm4.184 0a.672.672 0 0 1-.429-.148A.464.464 0 0 1 4 6.496v-.992c0-.133.063-.262.177-.356A.672.672 0 0 1 4.606 5h10.787c.334 0 .607.226.607.504v.992c0 .279-.273.504-.607.504H4.606zM.422 12a.39.39 0 0 1-.298-.148.558.558 0 0 1-.124-.356v-.992c0-.133.044-.262.124-.356A.39.39 0 0 1 .422 10h1.156a.39.39 0 0 1 .298.148c.08.094.124.223.124.356v.992a.558.558 0 0 1-.124.356.39.39 0 0 1-.298.148H.422zm4.184 0a.672.672 0 0 1-.429-.148.464.464 0 0 1-.177-.356v-.992c0-.133.063-.262.177-.356A.672.672 0 0 1 4.606 10h10.787c.334 0 .607.226.607.504v.992c0 .279-.273.504-.607.504H4.606z"/></svg>