<svg width="12" height="16" xmlns="http://www.w3.org/2000/svg"><path d="M9.941 5.65h-.517V3.31c0-1.79-1.57-3.305-3.43-3.305-1.89 0-3.428 1.555-3.428 3.465v2.15l.003.03h-.227C1.05 5.65 0 6.791 0 8.194v4.851c0 1.228.92 2.227 2.049 2.227h7.892c1.13 0 2.049-.999 2.049-2.227v-5.17c0-1.227-.92-2.226-2.049-2.226zm-6.497-.029V3.47c0-1.384 1.144-2.51 2.55-2.51 1.36 0 2.552 1.098 2.552 2.35v2.34H3.442l.002-.029zm7.668 7.425c0 .702-.525 1.273-1.171 1.273H2.049c-.646 0-1.17-.571-1.17-1.273V8.195c0-.877.656-1.59 1.463-1.59H9.94c.646 0 1.17.57 1.17 1.272v5.17z"/><path d="M7.209 9.984H4.781c-.243 0-.44.214-.44.478 0 .263.197.477.44.477h2.428c.243 0 .44-.214.44-.477 0-.264-.197-.478-.44-.478z"/></svg>