<svg width="12" height="12" xmlns="http://www.w3.org/2000/svg"><path d="M6.368 2.325l3.26 3.099c-.036.02-.091.04-.129.076-1.617 1.524-3.237 3.046-4.846 4.579-.21.2-.436.327-.72.404-1.103.298-2.202.612-3.304.918-.245.069-.437.007-.561-.174-.082-.12-.082-.251-.042-.381.352-1.147.704-2.293 1.061-3.438a.563.563 0 0 1 .146-.228c1.678-1.585 3.358-3.166 5.038-4.75.036-.034.067-.074.097-.106zM1.88 7.902c-.017.048-.03.083-.04.118-.15.48-.28.966-.453 1.438-.09.247-.065.42.16.566a.485.485 0 0 1 .11.103c.048.062.103.063.176.042.412-.118.826-.233 1.24-.349l.634-.177c-.034-.038-.053-.067-.08-.086a.493.493 0 0 1-.23-.473c.006-.075-.005-.15-.01-.226l-.041-.632c-.303-.024-.59-.053-.878-.067-.21-.01-.408-.03-.537-.217-.008-.012-.023-.019-.05-.04zm9.338-4.22L8.13.745c.249-.215.45-.498.777-.648.394-.18.885-.095 1.235.232a98.38 98.38 0 0 1 1.511 1.44c.46.45.452 1.057-.006 1.506-.143.14-.291.276-.43.407zm-.075.438l-.768.68-3.518-3.32.768-.68c1.174 1.108 2.34 2.21 3.518 3.32z"/></svg>