<svg width="18" height="18" xmlns="http://www.w3.org/2000/svg"><path d="M14.105.023l.032.002.03.003.032.004.03.005.03.007.03.007.03.008.03.01.028.011.03.01.028.013.028.014.027.015.027.015.027.017.025.018.027.018.024.02.025.02.024.021.023.022.023.023.022.025.02.024.021.026.021.026.037.055.018.029.017.03.016.03 2.986 5.845.022.047.021.05.018.048.016.05.014.05.01.053.01.053.006.052.004.052.002.053v.052l-.004.054-.006.052-.007.053-.01.052-.014.052-.015.053-.017.048-.02.05-.02.046-.025.046-.025.044-.029.043-.029.042-.031.04-.033.038-.035.035-.036.034-.039.033-.04.029-.04.027-.042.026-2.862 1.6.674 6.028.005.055.004.057.004.055v.167l-.002.056-.004.055-.005.056-.007.054-.008.055-.008.054-.01.054-.011.054-.014.052-.014.054-.015.052-.016.053-.017.052-.02.05-.019.05-.021.05-.023.05-.023.048-.025.047-.026.049-.027.046-.028.046-.03.045-.03.044-.032.044-.033.042-.033.042-.035.042-.035.039-.037.037-.037.037-.038.037-.04.034-.039.034-.04.031-.041.032-.041.029-.043.028-.043.027-.043.027-.044.025-.045.023-.045.022-.046.02-.045.02-.047.018-.047.016-.048.016-.048.014-.048.012-.049.01-.049.011-.048.008-.05.006-.05.005-.05.004-.05.002-.05.001H4.513l-.05-.003-.05-.004-.05-.005-.05-.006-.048-.009-.048-.01-.05-.01-.048-.012-.048-.014-.047-.016-.047-.016-.047-.018-.046-.02-.046-.02-.045-.021-.045-.024-.044-.025-.043-.027-.043-.027-.042-.028-.041-.03-.042-.03-.04-.032-.04-.034-.039-.034-.037-.037-.037-.037-.037-.037-.035-.04-.035-.041-.034-.042-.033-.042-.032-.044-.03-.044-.03-.045-.028-.046-.027-.046-.025-.049-.025-.047-.024-.049-.022-.05-.022-.05-.02-.05-.018-.05-.018-.052-.016-.052-.015-.052-.014-.052-.013-.053-.011-.055-.01-.053-.009-.055-.008-.055-.006-.054-.006-.056-.003-.055-.002-.056-.001-.056v-.111l.004-.055.004-.057.006-.055.673-6.028-2.86-1.6-.043-.026L.434 7.8l-.04-.03-.038-.03-.037-.036-.034-.035-.033-.038-.032-.04-.029-.042-.028-.042-.025-.045-.025-.046-.021-.047-.02-.05-.017-.048-.015-.052-.013-.052-.01-.052-.008-.053-.005-.052L0 6.957v-.052l.002-.055.004-.052.006-.052.01-.053.01-.051.014-.051.016-.05.018-.049.02-.05.024-.046L3.109.552l.015-.03.017-.03.018-.028.019-.029.019-.027.02-.026.02-.026.021-.024.023-.024.022-.023.024-.021.023-.021.025-.021.025-.02.025-.02.026-.017.027-.017.028-.014.027-.015.028-.014.028-.013.029-.01.058-.022.03-.008.03-.007.03-.007.03-.005.032-.004.03-.003h.032l.032-.003h1.683l.03.002.03.004.03.006.03.007.028.009.028.01.029.013.027.014.027.014.026.017.025.018.025.019.023.02.024.023.043.048.02.026.018.026.017.027.016.029.015.03.013.03.012.03.011.031.01.032.007.032.007.033.005.033.004.034.002.033.001.034v.363l.001.078.003.079.004.077.006.077.008.077.009.077.011.076.012.076.014.075.016.074.018.075.02.073.02.073.023.074.023.071.026.071.027.07.029.07.03.07.03.068.034.067.035.066.036.066.037.064.04.064.04.063.04.06.044.061.045.06.046.058.048.057.048.056.05.054.05.054.053.052.053.049.054.049.055.046.056.045.057.044.057.042.06.04.058.038.06.037.061.036.062.033.063.033.063.031.063.027.064.027.066.025.064.023.067.022.066.019.067.017.067.017.067.014.069.012.068.01.069.01.069.007.07.004.07.003.07.001h.07l.07-.004.07-.004.068-.008.07-.008.068-.01.067-.013.068-.014.067-.017.067-.017.067-.02.065-.02.066-.024.065-.025.063-.027.064-.028.063-.03.062-.032.062-.034.061-.035.06-.038.06-.037.058-.041.057-.042.057-.042.057-.046.054-.047.054-.049.054-.05.051-.051.052-.053.05-.054.048-.057.047-.056.046-.059.045-.059.043-.06.042-.062.04-.062.039-.063.037-.065.036-.066.035-.066.033-.067.03-.068.032-.07.028-.07.027-.07.025-.07.024-.072.022-.072.02-.074.02-.073.018-.073.016-.077.014-.075.012-.076.012-.075.009-.077.008-.077.006-.078.004-.076.003-.079V.708l.001-.035.002-.033.004-.034.006-.031.006-.035.008-.031.01-.032.01-.031.013-.032.013-.029.015-.03.016-.028.016-.027.02-.027.019-.025.021-.025L12.01.2l.023-.021.024-.021.024-.02.025-.018.027-.017.027-.014.027-.014.027-.013.03-.01.028-.008.03-.008.028-.006.03-.004.031-.002h1.715V.023zm-1.36 1.047v.009l-.002.097-.004.105-.005.103-.008.102-.01.103-.013.102-.014.101-.017.101-.02.1-.021.1-.023.1-.026.098-.027.098-.03.096-.032.095-.034.096-.036.094-.038.092-.04.092-.042.092-.044.089-.046.089-.048.087-.05.086-.052.085-.053.083-.056.082-.057.08-.06.08-.061.077-.064.076-.065.075-.066.073-.069.07-.069.068-.07.067-.072.065-.073.062-.075.06-.076.058-.077.056-.078.054-.08.052-.079.048-.081.047-.083.046-.082.041-.084.042-.086.037-.085.036-.086.033-.087.032-.088.027-.088.026-.09.024-.09.021-.09.019-.09.017-.092.013-.091.012-.092.01-.093.006-.093.004h-.187l-.093-.004-.092-.007-.092-.01-.092-.01-.092-.014-.09-.017-.09-.019-.09-.02-.09-.025-.088-.026-.087-.028-.088-.032-.087-.031-.085-.037-.085-.039-.084-.04-.083-.041-.082-.046-.082-.047-.08-.049-.079-.052-.078-.053-.077-.056-.075-.059-.075-.06-.073-.061-.072-.065-.072-.067-.069-.069-.067-.07-.068-.073-.064-.074-.063-.076-.062-.078-.06-.08-.057-.08-.055-.082-.055-.083-.051-.084-.05-.087-.049-.087-.045-.09-.044-.09-.043-.09-.04-.092-.037-.093-.037-.093-.034-.095-.031-.096-.03-.098-.028-.097-.025-.098-.023-.099-.022-.1-.019-.1-.017-.102-.014-.1-.013-.103-.01-.103-.008-.102-.006-.104-.004-.104V1.07l-1.322.001h-.008l-.004.008L.942 6.905l-.005.01.01.007 2.85 1.594.067.041.064.049.06.052.057.059.052.064.047.068.042.073.035.076.031.078.024.082.02.084.012.084.006.085v.086l-.007.086-.672 6.02-.004.036-.002.027v.029l-.002.028v.055l.002.028.002.027.002.028.011.082.006.027.006.026.006.028.007.026.007.026.009.026.008.025.01.027.01.025.01.024.011.025.012.024.013.024.013.024.013.023.015.023.014.022.016.022.015.022.016.022.017.021.018.021.018.019.018.019.018.019.02.018.019.016.02.017.02.017.02.015.02.014.022.015.022.014.021.012.023.013.021.011.023.012.046.02.023.008.024.008.024.009.023.006.024.006.025.006.024.005.024.004.026.003.024.003.025.001.026.001.03.001h8.888l.025-.002h.025l.025-.004.025-.003.024-.004.05-.01.023-.007.024-.006.023-.009.025-.008.022-.008.024-.01.022-.01.023-.01.022-.013.022-.013.022-.012.022-.014.021-.015.02-.014.021-.015.02-.017.02-.017.02-.016.018-.018.019-.019.018-.019.035-.04.017-.02.017-.022.015-.023.016-.02.014-.024.015-.023.013-.023.013-.024.024-.048.012-.025.01-.024.01-.025.01-.027.008-.025.008-.026.008-.026.006-.026.007-.028.006-.026.005-.027.012-.082.001-.028.002-.027.002-.028v-.083l-.002-.029-.002-.027-.003-.036-.673-6.02-.006-.086v-.086l.005-.085.013-.084.02-.084.023-.082.031-.078.036-.077.042-.072.047-.068.051-.063.057-.06.06-.052.064-.049.068-.041 2.85-1.593.01-.008-.006-.01-2.975-5.826-.004-.009h-1.33z" opacity=".7"/><path d="M9.864 11.251l.024.001.022.005.023.004.021.007.023.007.02.009.022.011.02.011.02.012.018.013.018.015.019.015.016.017.017.018.017.018.015.02.014.02.013.023.013.02.012.024.01.024.011.023.01.025.008.026.006.026.007.027.004.027.005.028.003.028v.028l.002.03v.029l-.002.028-.003.028-.005.028-.004.027-.007.026-.006.027-.01.025-.008.026-.01.023-.011.024-.012.022-.013.023-.013.022-.014.02-.015.019-.017.019-.017.018-.016.015-.018.016-.019.015-.018.013-.02.014-.02.011-.022.011-.02.007-.023.008-.02.007-.024.004-.022.004-.024.002-.024.001H3.433l-.023-.003-.023-.004-.022-.004-.022-.007-.022-.008-.02-.008-.022-.01-.02-.011-.02-.014-.018-.013-.019-.015-.018-.016-.017-.015-.016-.018-.017-.02-.014-.018-.015-.02-.014-.021-.012-.023-.012-.022-.011-.022-.01-.025-.01-.026-.009-.025-.006-.027-.005-.026-.006-.027-.004-.028-.003-.028-.001-.028-.002-.03v-.03l.002-.028.003-.028.004-.028.006-.027.005-.027.007-.026.01-.026.008-.025.01-.022.01-.025.013-.022.012-.023.014-.021.015-.02.014-.02.017-.019.016-.018.016-.017.019-.015.018-.015.02-.013.02-.012.02-.01.02-.012.021-.01.022-.006.022-.007.022-.004.024-.005h.022l.024-.002H9.84l.023.001h.001zm3.704 0l.023.001.023.005.022.004.022.007.022.007.02.009.022.011.02.011.02.012.018.013.018.015.019.015.018.017.016.018.016.018.015.02.014.02.014.023.012.02.012.024.011.024.01.023.01.025.009.026.006.026.005.027.006.027.004.028.003.028.002.028v.059l-.002.028-.003.028-.004.028-.006.027-.005.026-.007.027-.009.025-.009.026-.01.023-.01.024-.013.022-.012.023-.014.022-.014.02-.015.019-.016.019-.017.018-.016.015-.019.016-.018.015-.02.013-.02.014-.02.011-.02.011-.021.007-.022.008-.022.007-.022.004-.023.004-.023.002-.024.001h-1.903l-.023-.003-.023-.004-.023-.004-.022-.007-.022-.008-.02-.008-.022-.01-.02-.011-.019-.014-.019-.013-.018-.015-.018-.016-.018-.015-.016-.018-.031-.038-.015-.02-.013-.022-.013-.023-.012-.022-.011-.023-.01-.024-.008-.026-.01-.025-.007-.027-.005-.026-.006-.027-.003-.028-.004-.028v-.028l-.002-.03v-.029l.002-.028.004-.028.003-.028.006-.027.005-.027.008-.026.009-.026.009-.025.009-.022.011-.025.012-.022.013-.023.013-.021.015-.02.015-.02.016-.019.016-.018.018-.017.018-.015.018-.015.018-.013.02-.012.02-.01.021-.012.021-.01.022-.006.022-.007.023-.004.023-.005h.023l.023-.002h1.88l.024.001z"/></svg>